<svg width="1859" height="626" viewBox="0 0 1859 626" fill="none" xmlns="http://www.w3.org/2000/svg">
<rect width="1859" height="374" fill="black"/>
<rect x="77" y="276" width="67" height="229" rx="33.5" fill="white"/>
<rect x="221" y="324" width="67" height="229" rx="33.5" fill="white"/>
<rect x="365" y="234" width="67" height="229" rx="33.5" fill="white"/>
<rect x="509" y="209" width="67" height="229" rx="33.5" fill="white"/>
<rect x="796" y="288" width="67" height="229" rx="33.5" fill="white"/>
<rect x="938" y="212" width="67" height="229" rx="33.5" fill="white"/>
<rect x="1082" y="184" width="67" height="229" rx="33.5" fill="white"/>
<rect x="1082" y="184" width="67" height="229" rx="33.5" fill="white"/>
<rect x="1223" y="235" width="67" height="229" rx="33.5" fill="white"/>
<rect x="1505" y="260" width="67" height="229" rx="33.5" fill="white"/>
<rect x="1646" y="272" width="67" height="229" rx="33.5" fill="white"/>
<rect x="1792" y="260" width="67" height="229" rx="33.5" fill="white"/>
<rect x="1361" y="191" width="67" height="229" rx="33.5" fill="white"/>
<rect x="653" y="187" width="67" height="229" rx="33.5" fill="white"/>
<path d="M0 257.5C0 236.237 17.237 219 38.5 219C59.763 219 77 236.237 77 257.5V587.5C77 608.763 59.763 626 38.5 626C17.237 626 0 608.763 0 587.5V257.5Z" fill="black"/>
<path d="M144 184.5C144 163.237 161.237 146 182.5 146C203.763 146 221 163.237 221 184.5V514.5C221 535.763 203.763 553 182.5 553C161.237 553 144 535.763 144 514.5V184.5Z" fill="black"/>
<path d="M432 74.5C432 53.237 449.237 36 470.5 36C491.763 36 509 53.237 509 74.5V404.5C509 425.763 491.763 443 470.5 443C449.237 443 432 425.763 432 404.5V74.5Z" fill="black"/>
<path d="M576 148.5C576 127.237 593.237 110 614.5 110C635.763 110 653 127.237 653 148.5V478.5C653 499.763 635.763 517 614.5 517C593.237 517 576 499.763 576 478.5V148.5Z" fill="black"/>
<path d="M719 44.5C719 23.237 736.237 6 757.5 6C778.763 6 796 23.237 796 44.5V374.5C796 395.763 778.763 413 757.5 413C736.237 413 719 395.763 719 374.5V44.5Z" fill="black"/>
<path d="M861 136.5C861 115.237 878.237 98 899.5 98C920.763 98 938 115.237 938 136.5V466.5C938 487.763 920.763 505 899.5 505C878.237 505 861 487.763 861 466.5V136.5Z" fill="black"/>
<path d="M1146 156.5C1146 135.237 1163.24 118 1184.5 118C1205.76 118 1223 135.237 1223 156.5V486.5C1223 507.763 1205.76 525 1184.5 525C1163.24 525 1146 507.763 1146 486.5V156.5Z" fill="black"/>
<path d="M1146 156.5C1146 135.237 1163.24 118 1184.5 118C1205.76 118 1223 135.237 1223 156.5V486.5C1223 507.763 1205.76 525 1184.5 525C1163.24 525 1146 507.763 1146 486.5V156.5Z" fill="black"/>
<path d="M1287 72.5C1287 51.237 1304.24 34 1325.5 34C1346.76 34 1364 51.237 1364 72.5V402.5C1364 423.763 1346.76 441 1325.5 441C1304.24 441 1287 423.763 1287 402.5V72.5Z" fill="black"/>
<path d="M1428 209.5C1428 188.237 1445.24 171 1466.5 171C1487.76 171 1505 188.237 1505 209.5V539.5C1505 560.763 1487.76 578 1466.5 578C1445.24 578 1428 560.763 1428 539.5V209.5Z" fill="black"/>
<path d="M1569 107.5C1569 86.237 1586.24 69 1607.5 69C1628.76 69 1646 86.237 1646 107.5V437.5C1646 458.763 1628.76 476 1607.5 476C1586.24 476 1569 458.763 1569 437.5V107.5Z" fill="black"/>
<path d="M1713 221.5C1713 200.237 1730.24 183 1751.5 183C1772.76 183 1790 200.237 1790 221.5V551.5C1790 572.763 1772.76 590 1751.5 590C1730.24 590 1713 572.763 1713 551.5V221.5Z" fill="black"/>
<path d="M1005 44.5C1005 23.237 1022.24 6 1043.5 6C1064.76 6 1082 23.237 1082 44.5V374.5C1082 395.763 1064.76 413 1043.5 413C1022.24 413 1005 395.763 1005 374.5V44.5Z" fill="black"/>
<path d="M288 69.5C288 48.237 305.237 31 326.5 31C347.763 31 365 48.237 365 69.5V399.5C365 420.763 347.763 438 326.5 438C305.237 438 288 420.763 288 399.5V69.5Z" fill="black"/>
</svg>
